<svg width="1216" height="98" viewBox="0 0 1216 98" fill="none" xmlns="http://www.w3.org/2000/svg">
<g id="process">
<g id="BG">
<path id="Rectangle 34624421" d="M0 64.333V63.9403C0 49.2606 15.2941 39.5879 28.5572 45.8794C35.018 48.9441 42.6237 48.3243 48.503 44.254L63.8313 33.6421C80.4231 22.1555 102.147 21.2539 119.634 31.3261L128.985 36.7125C144.37 45.5743 163.087 46.4641 179.244 39.1017L205.581 27.1001C222.388 19.4408 241.918 20.7297 257.574 30.5314L263.529 34.2601C279.946 44.538 300.557 45.4239 317.795 36.5924L342.09 24.1451C359.924 15.0077 381.317 16.2932 397.929 27.5005L410.106 35.7161C424.237 45.2495 441.99 47.6921 458.17 42.3291L498.62 28.9222C511.425 24.6781 525.343 25.2879 537.728 30.6358L567.665 43.5631C578.592 48.282 590.756 49.3283 602.33 46.5449L686.31 26.3471C697.178 23.7332 708.585 24.493 719.01 28.5251L760.687 44.6438C777.224 51.0395 795.829 49.0709 810.662 39.3562L823.03 31.2552C842.983 18.1865 869.085 19.4678 887.662 34.428L888.638 35.2143C903.743 47.3787 924.139 50.6884 942.315 43.9249L999.856 22.5146C1013.11 17.5839 1027.75 17.9458 1040.74 23.525L1090.36 44.8362C1099.5 48.7606 1109.53 50.1338 1119.39 48.8099L1187.75 39.6271C1202.71 37.6188 1216 49.2472 1216 64.333C1216 77.0356 1205.7 87.333 1193 87.333H23C10.2974 87.333 0 77.0356 0 64.333Z" fill="url(#paint0_linear_19267_180408)"/>
<circle id="Ellipse 19212" cx="331.5" cy="50.333" r="4" fill="#FEDF89"/>
<circle id="Ellipse 19218" cx="991.5" cy="50.333" r="4" fill="#A6F4C5"/>
<circle id="Ellipse 19213" cx="317.5" cy="75.833" r="7.5" fill="#FEDF89"/>
<circle id="Ellipse 19222" cx="549" cy="46.333" r="5" fill="#FEDF89"/>
<circle id="Ellipse 19223" cx="759" cy="44.333" r="5" fill="#FEDF89"/>
<circle id="Ellipse 19219" cx="977.5" cy="75.833" r="7.5" fill="#A6F4C5"/>
<circle id="Ellipse 19220" cx="894" cy="42.333" r="4" fill="#FEF0C7"/>
<circle id="Ellipse 19221" cx="1173" cy="38.333" r="4" fill="#A6F4C5"/>
<circle id="Ellipse 19214" cx="210.5" cy="72.833" r="2.5" fill="#C1D0F6"/>
<circle id="Ellipse 19215" cx="8.5" cy="44.833" r="2.5" fill="#C1D0F6"/>
<circle id="Ellipse 19216" cx="10" cy="55.333" r="4" fill="#C1D0F6"/>
<circle id="Ellipse 19217" cx="90" cy="14.333" r="4" fill="#C1D0F6"/>
<line id="Line 531" x1="1.5" y1="84.835" x2="1214.5" y2="84.835" stroke="#1250DC" stroke-width="3" stroke-linecap="round" stroke-dasharray="7 7"/>
</g>
<ellipse id="Ellipse 19205" cx="605" cy="86.501" rx="11" ry="11.5" fill="#F79009"/>
<ellipse id="Ellipse 19206" cx="171" cy="86.501" rx="11" ry="11.5" fill="url(#paint1_linear_19267_180408)"/>
<ellipse id="Ellipse 19207" cx="1039" cy="86.501" rx="11" ry="11.5" fill="#039855"/>
<g id="Group 427323145">
<path id="Ellipse 19208" d="M201 31.3542C201 48.6706 171 70 171 70C171 70 141 48.6706 141 31.3542C141 14.0377 154.431 0 171 0C187.569 0 201 14.0377 201 31.3542Z" fill="url(#paint2_linear_19267_180408)"/>
<ellipse id="Ellipse 19211" cx="171" cy="28.5" rx="20" ry="20.5" fill="#FCFCFC"/>
<path id="1" d="M174.706 14.8182V41H169.171V20.0724H169.017L163.021 23.831V18.9219L169.503 14.8182H174.706Z" fill="#1250DC"/>
</g>
<g id="Group 427323146">
<path id="Ellipse 19208_2" d="M635 31.3542C635 48.6706 605 70 605 70C605 70 575 48.6706 575 31.3542C575 14.0377 588.431 0 605 0C621.569 0 635 14.0377 635 31.3542Z" fill="#F79009"/>
<ellipse id="Ellipse 19211_2" cx="605" cy="28.5" rx="20" ry="20.5" fill="#FCFCFC"/>
<path id="2" d="M595.284 41V37.0114L604.604 28.3821C605.396 27.6151 606.061 26.9247 606.598 26.3111C607.144 25.6974 607.557 25.0966 607.838 24.5085C608.119 23.9119 608.26 23.2685 608.26 22.5781C608.26 21.8111 608.085 21.1506 607.736 20.5966C607.387 20.0341 606.909 19.6037 606.304 19.3054C605.699 18.9986 605.013 18.8452 604.246 18.8452C603.445 18.8452 602.746 19.0071 602.149 19.331C601.553 19.6548 601.093 20.1193 600.769 20.7244C600.445 21.3295 600.283 22.0497 600.283 22.8849H595.029C595.029 21.1719 595.416 19.6847 596.192 18.4233C596.968 17.1619 598.054 16.1861 599.452 15.4957C600.85 14.8054 602.46 14.4602 604.284 14.4602C606.159 14.4602 607.791 14.7926 609.181 15.4574C610.578 16.1136 611.665 17.0256 612.441 18.1932C613.216 19.3608 613.604 20.6989 613.604 22.2074C613.604 23.196 613.408 24.1719 613.016 25.1349C612.632 26.098 611.946 27.1676 610.958 28.3438C609.969 29.5114 608.575 30.9134 606.777 32.5497L602.955 36.2955V36.4744H613.949V41H595.284Z" fill="#F79009"/>
</g>
<g id="Group 427323147">
<path id="Ellipse 19208_3" d="M1069 31.3542C1069 48.6706 1039 70 1039 70C1039 70 1009 48.6706 1009 31.3542C1009 14.0377 1022.43 0 1039 0C1055.57 0 1069 14.0377 1069 31.3542Z" fill="#039855"/>
<ellipse id="Ellipse 19211_3" cx="1039" cy="28.5" rx="20" ry="20.5" fill="#FCFCFC"/>
<path id="3" d="M1039.93 41.691C1038.03 41.691 1036.33 41.3628 1034.83 40.7066C1033.35 40.0418 1032.18 39.1299 1031.32 37.9708C1030.47 36.8032 1030.03 35.4566 1030 33.931H1035.58C1035.61 34.5702 1035.82 35.1327 1036.2 35.6185C1036.59 36.0958 1037.11 36.4665 1037.76 36.7307C1038.41 36.9949 1039.14 37.127 1039.95 37.127C1040.79 37.127 1041.54 36.9779 1042.18 36.6796C1042.83 36.3813 1043.34 35.968 1043.71 35.4395C1044.07 34.9111 1044.26 34.3018 1044.26 33.6114C1044.26 32.9126 1044.06 32.2947 1043.67 31.7577C1043.28 31.2123 1042.73 30.7861 1042.01 30.4793C1041.29 30.1725 1040.44 30.0191 1039.45 30.0191H1037.01V25.9537H1039.45C1040.28 25.9537 1041.02 25.8089 1041.66 25.5191C1042.31 25.2293 1042.81 24.8287 1043.17 24.3174C1043.53 23.7975 1043.71 23.1924 1043.71 22.502C1043.71 21.8458 1043.55 21.2705 1043.23 20.7762C1042.93 20.2733 1042.49 19.8813 1041.93 19.6001C1041.37 19.3188 1040.73 19.1782 1039.99 19.1782C1039.24 19.1782 1038.55 19.3145 1037.93 19.5873C1037.31 19.8515 1036.81 20.2307 1036.43 20.7251C1036.06 21.2194 1035.86 21.7989 1035.83 22.4637H1030.53C1030.55 20.9552 1030.98 19.6256 1031.82 18.4751C1032.65 17.3245 1033.78 16.4253 1035.19 15.7776C1036.61 15.1214 1038.22 14.7932 1040.01 14.7932C1041.82 14.7932 1043.4 15.1214 1044.75 15.7776C1046.11 16.4339 1047.16 17.3202 1047.91 18.4367C1048.67 19.5447 1049.05 20.789 1049.04 22.1697C1049.05 23.6356 1048.59 24.8586 1047.67 25.8387C1046.76 26.8188 1045.57 27.441 1044.1 27.7052V27.9097C1046.03 28.1569 1047.49 28.8259 1048.5 29.9168C1049.51 30.9992 1050.02 32.3543 1050.01 33.9822C1050.02 35.4736 1049.59 36.7989 1048.72 37.958C1047.86 39.1171 1046.67 40.029 1045.15 40.6938C1043.63 41.3586 1041.89 41.691 1039.93 41.691Z" fill="#039855"/>
</g>
</g>
<defs>
<linearGradient id="paint0_linear_19267_180408" x1="-5.62508e-08" y1="87.0001" x2="1216" y2="87.0001" gradientUnits="userSpaceOnUse">
<stop stop-color="#EAEFFA"/>
<stop offset="0.53125" stop-color="#FFEBD1"/>
<stop offset="1" stop-color="#D9FFEE"/>
</linearGradient>
<linearGradient id="paint1_linear_19267_180408" x1="182" y1="98.001" x2="159.023" y2="76.0227" gradientUnits="userSpaceOnUse">
<stop stop-color="#1250DC"/>
<stop offset="1" stop-color="#306DE4"/>
</linearGradient>
<linearGradient id="paint2_linear_19267_180408" x1="201" y1="70" x2="131.824" y2="10.7059" gradientUnits="userSpaceOnUse">
<stop stop-color="#1250DC"/>
<stop offset="1" stop-color="#306DE4"/>
</linearGradient>
</defs>
</svg>
